<?xml version="1.0" encoding="utf-8"?>
<!-- Generator: Adobe Illustrator 24.0.2, SVG Export Plug-In . SVG Version: 6.00 Build 0)  -->
<svg version="1.1" xmlns="http://www.w3.org/2000/svg" xmlns:xlink="http://www.w3.org/1999/xlink" x="0px" y="0px"
	 viewBox="0 0 24 24" style="enable-background:new 0 0 24 24;" xml:space="preserve">
<style type="text/css">
	.st0{fill:none;}
	.st1{fill:#ff5268;}
</style>
<g id="bounding_box">
	<rect x="0" y="0" class="st0" width="24" height="24"/>
</g>
<g id="design">
	<g>
		<path class="st1" d="M19.07,4.93C17.18,3.04,14.67,2,12,2S6.82,3.04,4.93,4.93c-3.9,3.9-3.9,10.24,0,14.14
			C6.88,21.02,9.44,22,12,22c1.28,0,2.56-0.24,3.76-0.73c1.21-0.49,2.34-1.23,3.31-2.2C22.97,15.17,22.97,8.83,19.07,4.93z
			 M15.96,15.96c-0.2,0.19-0.45,0.29-0.71,0.29c-0.25,0-0.51-0.1-0.71-0.29l-3.25-3.25c-0.09-0.09-0.16-0.2-0.21-0.32
			c-0.02-0.04-0.04-0.09-0.04-0.14C11.01,12.17,11,12.09,11,12V8.79c0-0.55,0.45-1,1-1s1,0.45,1,1v2.8l2.96,2.96
			C16.35,14.94,16.35,15.57,15.96,15.96z"/>
	</g>
</g>
</svg>
